<svg width="908" height="876" viewBox="0 0 908 876" fill="none" xmlns="http://www.w3.org/2000/svg">
<path d="M710.245 228.905L667.47 190.427L462.544 434.022L505.32 472.5L710.245 228.905Z" fill="black"/>
<path d="M377.163 535.533C374.361 538.864 374.59 543.565 377.282 546.794C361.843 561.961 353.592 583.521 355.475 605.37L356.326 615.236L347.302 625.964C344.163 629.704 344.643 635.273 348.376 638.421C350.251 639.99 352.572 640.659 354.827 640.465C357.082 640.27 359.263 639.213 360.833 637.347L369.857 626.619L379.724 625.769C401.581 623.884 421.402 612.067 433.703 594.267C435.263 595.171 436.998 595.732 438.822 595.575C441.156 595.373 443.314 594.246 444.828 592.457L475.458 556.036L407.793 499.113L377.163 535.533ZM378.205 608.15L373.5 608.555L373.094 603.851C371.625 586.804 378.248 569.946 390.62 558.407L419.978 583.105C410.727 597.27 395.261 606.679 378.205 608.15Z" fill="black"/>
<path d="M825.144 126.637C828.292 122.895 827.811 117.319 824.07 114.18L783.467 80.0224C779.735 76.8827 774.158 77.3636 771.01 81.0963L749.259 106.962C748.836 107.3 748.359 107.527 747.996 107.958L730.881 128.303C729.121 126.937 726.94 126.228 724.711 126.421C722.376 126.622 720.21 127.74 718.705 129.538L678.855 176.897L712.692 205.363C716.434 208.511 716.914 214.079 713.766 217.82L497.455 474.949C495.876 476.816 493.704 477.872 491.449 478.067C489.194 478.261 486.864 477.593 484.998 476.023L451.161 447.557L419.169 485.585L486.843 542.507L740.829 240.586L747.595 246.287L622.365 395.148C619.216 398.881 619.697 404.458 623.439 407.605L643.745 424.688C645.535 426.194 647.853 426.934 650.196 426.732C652.53 426.531 654.688 425.403 656.202 423.614L815.581 234.152C818.728 230.41 818.248 224.842 814.507 221.695L794.21 204.611C792.419 203.097 790.093 202.366 787.759 202.567C785.424 202.768 783.266 203.886 781.753 205.685L758.978 232.757L752.212 227.056L786.37 186.463C789.509 182.721 789.029 177.154 785.296 174.006L802.371 153.709L825.144 126.637ZM771.764 162.622L757.984 151.03L744.453 139.637L755.836 126.106L769.242 137.385L783.147 149.09L771.764 162.622ZM781.238 124.369L767.468 112.776L778.851 99.2446L805.923 122.019L794.531 135.56L781.238 124.369Z" fill="black"/>
<path fill-rule="evenodd" clip-rule="evenodd" d="M348 580.491V600.894H329.663C333.48 596.53 337.329 592.265 341.157 588.056L341.158 588.056C343.438 585.547 345.725 583.031 348 580.491ZM441.693 613L491.95 716.243C494.724 721.941 491.808 726.604 485.47 726.604H57.53C51.1919 726.604 48.2755 721.941 51.05 716.243L119.262 576.118C120.347 573.889 123.263 572.065 125.742 572.065H184.23C186.033 572.065 188.467 573.193 189.647 574.556C193.615 579.142 197.657 583.622 201.687 588.056C205.515 592.265 209.363 596.53 213.181 600.894H143.77C141.29 600.894 138.374 602.717 137.29 604.947L92.1021 697.776H450.896L409.632 613H441.693ZM326.65 574.31C350.443 548.137 371.784 524.661 371.784 480.357C371.784 421.708 321.473 374.808 261.654 380.463C202.835 386.023 162.551 443.016 172.816 501.199C178.372 532.695 196.442 552.573 216.203 574.311C233.524 593.365 252.144 613.848 264.775 644.836C267.212 650.813 275.629 650.844 278.065 644.865C290.697 613.86 309.324 593.37 326.65 574.31ZM271.427 427.359C300.697 427.359 324.425 451.087 324.425 480.357C324.425 509.628 300.697 533.355 271.427 533.355C242.156 533.355 218.429 509.628 218.429 480.357C218.429 451.087 242.156 427.359 271.427 427.359Z" fill="black"/>
</svg>
