<?xml version="1.0" encoding="UTF-8" standalone="no"?>
<!-- Generator: Adobe Illustrator 19.0.0, SVG Export Plug-In . SVG Version: 6.00 Build 0)  -->

<svg
   xmlns:dc="http://purl.org/dc/elements/1.1/"
   xmlns:cc="http://creativecommons.org/ns#"
   xmlns:rdf="http://www.w3.org/1999/02/22-rdf-syntax-ns#"
   xmlns:svg="http://www.w3.org/2000/svg"
   xmlns="http://www.w3.org/2000/svg"
   xmlns:sodipodi="http://sodipodi.sourceforge.net/DTD/sodipodi-0.dtd"
   xmlns:inkscape="http://www.inkscape.org/namespaces/inkscape"
   version="1.1"
   id="Capa_1"
   x="0px"
   y="0px"
   viewBox="0 0 512 512"
   style="enable-background:new 0 0 512 512;"
   xml:space="preserve"
   sodipodi:docname="editar-calendario.svg"
   inkscape:version="0.92.4 (5da689c313, 2019-01-14)"><metadata
   id="metadata4270"><rdf:RDF><cc:Work
       rdf:about=""><dc:format>image/svg+xml</dc:format><dc:type
         rdf:resource="http://purl.org/dc/dcmitype/StillImage" /><dc:title /></cc:Work></rdf:RDF></metadata><defs
   id="defs4268" /><sodipodi:namedview
   pagecolor="#ffffff"
   bordercolor="#666666"
   borderopacity="1"
   objecttolerance="10"
   gridtolerance="10"
   guidetolerance="10"
   inkscape:pageopacity="0"
   inkscape:pageshadow="2"
   inkscape:window-width="1920"
   inkscape:window-height="1017"
   id="namedview4266"
   showgrid="false"
   inkscape:zoom="1.1739077"
   inkscape:cx="128.01487"
   inkscape:cy="203.31764"
   inkscape:window-x="-8"
   inkscape:window-y="-8"
   inkscape:window-maximized="1"
   inkscape:current-layer="Capa_1" />
<g
   id="g4167"
   transform="matrix(0.44491569,0,0,0.37928559,75.391,220.28165)">
	<g
   id="g4165">
		<path
   d="m 184.698,208.046 c -16.869,0 -30.593,13.724 -30.593,30.593 0,16.869 13.724,30.593 30.593,30.593 16.869,0 30.593,-13.724 30.593,-30.593 0,-16.869 -13.724,-30.593 -30.593,-30.593 z m 0,46.185 c -8.598,0 -15.592,-6.994 -15.592,-15.592 0,-8.598 6.994,-15.592 15.592,-15.592 8.597,0 15.592,6.994 15.592,15.592 0,8.597 -6.995,15.592 -15.592,15.592 z"
   id="path4163"
   inkscape:connector-curvature="0" />
	</g>
</g>
<g
   id="g4173"
   transform="matrix(0.44491569,0,0,0.37928559,75.391,220.28165)">
	<g
   id="g4171">
		<path
   d="m 264.457,208.046 c -16.869,0 -30.594,13.724 -30.594,30.593 0,16.869 13.725,30.593 30.594,30.593 16.869,0 30.593,-13.724 30.593,-30.593 0,-16.869 -13.724,-30.593 -30.593,-30.593 z m 0,46.185 c -8.599,0 -15.593,-6.994 -15.593,-15.592 0,-8.598 6.995,-15.592 15.593,-15.592 8.598,0 15.592,6.994 15.592,15.592 0,8.598 -6.995,15.592 -15.592,15.592 z"
   id="path4169"
   inkscape:connector-curvature="0" />
	</g>
</g>
<g
   id="g4179"
   transform="matrix(0.44491569,0,0,0.37928559,75.391,220.28165)">
	<g
   id="g4177">
		<path
   d="m 338.25977,208.83203 c -14.7263,2.72292 -26.14237,17.78599 -24.25,32.73828 1.61021,13.36362 12.59738,25.30438 26.07617,27.13672 12.23734,1.33535 25.29812,-5.02846 30.88281,-16.17383 1.50298,-2.71447 0.33386,-6.31425 -2.3125,-7.84179 -1.8617,-0.78871 -3.96259,-3.19533 -5.77826,-2.57335 -2.28344,2.16582 -4.78798,4.07796 -6.96393,6.36436 -2.55532,2.58829 -5.70312,4.80431 -9.40658,5.23404 -5.72223,1.00149 -11.97949,-1.55254 -15.00083,-6.59897 -4.14472,-6.24715 -3.17378,-15.79536 3.07343,-20.32452 4.23787,-3.01051 9.40984,-4.23309 13.82812,-6.91992 -1.12759,-3.21878 -0.71158,-7.2102 -3.35937,-9.74024 -1.8076,-1.6602 -4.50391,-1.7462 -6.78906,-1.30078 z"
   id="path4175"
   inkscape:connector-curvature="0" />
	</g>
</g>
<g
   id="g4185"
   transform="matrix(0.44491569,0,0,0.37928559,75.391,220.28165)">
	<g
   id="g4183">
		<path
   d="m 184.698,282.671 c -16.869,0 -30.593,13.724 -30.593,30.593 0,16.869 13.724,30.593 30.593,30.593 16.869,0 30.593,-13.724 30.593,-30.593 0,-16.869 -13.724,-30.593 -30.593,-30.593 z m 0,46.185 c -8.598,0 -15.592,-6.994 -15.592,-15.592 0,-8.598 6.994,-15.592 15.592,-15.592 8.597,0 15.592,6.994 15.592,15.592 0,8.598 -6.995,15.592 -15.592,15.592 z"
   id="path4181"
   inkscape:connector-curvature="0" />
	</g>
</g>
<g
   id="g4191"
   transform="matrix(0.44491569,0,0,0.37928559,75.391,220.28165)">
	<g
   id="g4189">
		<path
   d="m 344.216,282.671 c -16.869,0 -30.593,13.724 -30.593,30.593 0,16.869 13.724,30.593 30.593,30.593 16.869,0 30.593,-13.724 30.593,-30.593 -0.001,-16.869 -13.725,-30.593 -30.593,-30.593 z m 0,46.185 c -8.598,0 -15.592,-6.994 -15.592,-15.592 0,-8.598 6.995,-15.592 15.592,-15.592 8.597,0 15.592,6.994 15.592,15.592 -10e-4,8.598 -6.995,15.592 -15.592,15.592 z"
   id="path4187"
   inkscape:connector-curvature="0" />
	</g>
</g>
<g
   id="g4197"
   transform="matrix(0.44491569,0,0,0.37928559,75.391,220.28165)">
	<g
   id="g4195">
		<path
   d="m 264.457,282.671 c -16.869,0 -30.594,13.724 -30.594,30.593 0,16.869 13.725,30.593 30.594,30.593 16.869,0 30.593,-13.724 30.593,-30.593 0,-16.869 -13.724,-30.593 -30.593,-30.593 z m 0,46.185 c -8.599,0 -15.593,-6.994 -15.593,-15.592 0,-8.598 6.995,-15.592 15.593,-15.592 8.598,0 15.592,6.994 15.592,15.592 0,8.598 -6.995,15.592 -15.592,15.592 z"
   id="path4193"
   inkscape:connector-curvature="0" />
	</g>
</g>
<g
   id="g4203"
   transform="matrix(0.44491569,0,0,0.37928559,75.391,220.28165)">
	<g
   id="g4201">
		<path
   d="m 264.457,357.296 c -16.869,0 -30.593,13.725 -30.593,30.594 0,16.869 13.724,30.593 30.593,30.593 16.869,0 30.593,-13.724 30.593,-30.593 0,-16.869 -13.724,-30.594 -30.593,-30.594 z m 0,46.185 c -8.599,0 -15.593,-6.994 -15.593,-15.592 0.001,-8.597 6.995,-15.593 15.593,-15.593 8.598,0 15.592,6.994 15.592,15.593 0,8.598 -6.995,15.592 -15.592,15.592 z"
   id="path4199"
   inkscape:connector-curvature="0" />
	</g>
</g>
<g
   id="g4209"
   transform="matrix(0.44491569,0,0,0.37928559,75.391,220.28165)">
	<g
   id="g4207">
		<path
   d="m 184.698,357.296 c -16.869,0 -30.593,13.725 -30.593,30.594 0,16.869 13.724,30.593 30.593,30.593 16.869,0 30.593,-13.724 30.593,-30.593 0,-16.869 -13.724,-30.594 -30.593,-30.594 z m 0,46.185 c -8.598,0 -15.592,-6.994 -15.592,-15.592 0,-8.598 6.994,-15.593 15.592,-15.593 8.597,0 15.592,6.994 15.592,15.593 -0.001,8.598 -6.995,15.592 -15.592,15.592 z"
   id="path4205"
   inkscape:connector-curvature="0" />
	</g>
</g>
<g
   id="g4215"
   transform="matrix(0.44491569,0,0,0.37928559,75.391,220.28165)">
	<g
   id="g4213">
		<path
   d="m 115.548,238.64 11.026,-11.026 c 2.929,-2.929 2.929,-7.677 -0.001,-10.607 -2.928,-2.928 -7.677,-2.929 -10.607,0.001 l -11.025,11.025 -11.025,-11.025 c -2.929,-2.929 -7.678,-2.93 -10.607,-0.001 -2.93,2.93 -2.93,7.678 -10e-4,10.607 l 11.026,11.026 -11.026,11.026 c -2.931,2.928 -2.931,7.676 -0.001,10.607 1.464,1.464 3.384,2.196 5.303,2.196 1.919,0 3.839,-0.732 5.304,-2.197 l 11.025,-11.025 11.025,11.025 c 1.465,1.465 3.384,2.197 5.304,2.197 1.919,0 3.839,-0.732 5.303,-2.196 2.93,-2.93 2.93,-7.678 0.001,-10.607 z"
   id="path4211"
   inkscape:connector-curvature="0" />
	</g>
</g>
<g
   id="g4221"
   transform="matrix(0.44491569,0,0,0.37928559,75.391,220.28165)">
	<g
   id="g4219">
		<path
   d="m 115.548,313.265 11.026,-11.026 c 2.929,-2.929 2.929,-7.677 -0.001,-10.607 -2.928,-2.928 -7.677,-2.929 -10.607,10e-4 l -11.025,11.025 -11.025,-11.025 c -2.929,-2.93 -7.678,-2.929 -10.607,-10e-4 -2.93,2.93 -2.93,7.678 -10e-4,10.607 l 11.026,11.026 -11.026,11.026 c -2.931,2.928 -2.931,7.676 -0.001,10.607 1.464,1.464 3.384,2.196 5.303,2.196 1.919,0 3.839,-0.732 5.304,-2.197 l 11.025,-11.025 11.025,11.025 c 1.465,1.465 3.384,2.197 5.304,2.197 1.919,0 3.839,-0.732 5.303,-2.196 2.93,-2.93 2.93,-7.678 0.001,-10.607 z"
   id="path4217"
   inkscape:connector-curvature="0" />
	</g>
</g>
<g
   id="g4227"
   transform="matrix(0.44491569,0,0,0.37928559,75.391,220.28165)">
	<g
   id="g4225">
		<path
   d="m 126.573,398.913 -11.025,-11.025 11.025,-11.025 c 2.927,-2.929 2.927,-7.677 -0.002,-10.608 -2.93,-2.928 -7.678,-2.928 -10.608,0 L 104.938,377.28 93.913,366.255 c -2.93,-2.928 -7.678,-2.928 -10.608,0 -2.929,2.93 -2.929,7.678 0,10.608 l 11.025,11.025 -11.025,11.025 c -2.929,2.93 -2.929,7.678 0,10.608 1.465,1.464 3.385,2.196 5.304,2.196 1.919,0 3.839,-0.732 5.304,-2.196 l 11.025,-11.025 11.025,11.025 c 1.465,1.464 3.385,2.196 5.304,2.196 1.919,0 3.839,-0.732 5.304,-2.196 2.931,-2.931 2.931,-7.679 0.002,-10.608 z"
   id="path4223"
   inkscape:connector-curvature="0" />
	</g>
</g>
<g
   id="g4233"
   transform="matrix(0.44491569,0,0,0.37928559,75.391,220.28165)">
	<g
   id="g4231">
		<path
   d="m 98.871094,37.078125 c -4.650482,6.511598 -4.965381,14.838655 -5.146485,22.542969 v 8.251953 L 26.216797,67.982422 C 13.85531,76.841961 6.5856954,92.147543 7.1992188,107.30664 l 0.017578,338.76758 c 8.0120352,12.80517 23.1286122,20.64354 38.1930582,20.07055 l 169.240535,0.0896 c 4.04662,-2.36564 6.34744,-7.36303 5.48828,-11.97461 -46.77112,-3.90092 -93.74273,-2.65331 -140.620489,-2.98252 -17.323118,-0.002 -34.646235,-0.004 -51.969353,-0.006 -4.353457,-3.44317 -6.219766,-9.37256 -5.439453,-14.76953 V 165.25586 C 138.7207,160.17188 253.41738,158.59718 370.02871,153.5132 c -3.39043,-2.57816 -6.0172,-5.24763 -9.98183,-5.36086 -100.05667,1.00891 -200.11371,2.24374 -300.176977,2.26227 -10.376556,0.0115 -20.753112,0.0231 -31.129669,0.0346 -4.63485,-1.16339 -7.756947,-6.25663 -6.880859,-10.91992 l 0.345703,-49.634769 c 2.941581,-4.456052 8.631676,-5.711804 13.63086,-5.939453 17.860062,-0.641513 35.729651,-0.960289 53.599609,-1.158203 3.350181,0.746396 4.787955,4.604741 4.474609,7.708984 l 0.03125,27.080081 c 2.62824,3.82574 7.741934,5.71452 12.226564,4.51953 0.88346,-11.10938 1.76693,-22.218751 2.65039,-33.328126 -0.57272,-3.154225 2.577,-6.296653 5.72852,-5.738282 l 42.41406,-0.277343 c 1.63493,10.909133 1.97111,21.953261 2.21875,32.964841 1.26291,4.11018 5.44385,7.09206 9.74023,6.95508 3.38089,-3.81709 2.82339,-9.24175 3.37427,-13.96305 0.58878,-7.17898 1.17757,-14.357967 1.76636,-21.536949 4.2155,-3.957544 10.37742,-4.001746 15.8063,-4.050253 l 31.51206,-0.377482 c 3.48942,4.164571 2.99514,9.944964 3.05129,15.021181 -0.021,6.484473 -0.042,12.968953 -0.063,19.453433 2.5905,3.36486 6.74048,5.62754 11.03906,5.46289 2.09842,-11.94382 3.0023,-24.049003 4.0332,-36.119144 4.29272,-3.578275 10.21866,-3.242494 15.4668,-3.394532 l 31.81641,-0.33789 c 3.80904,8.858775 2.90505,18.706826 2.91992,28.103516 -0.13726,3.03743 -0.43204,6.86356 2.3961,8.83817 2.40985,2.11577 5.79306,3.04775 8.9496,2.49191 1.41171,-11.7798 2.56319,-23.588973 3.56641,-35.410159 4.13021,-3.70958 10.03883,-3.577814 15.24609,-3.683593 l 32.15625,-0.345704 c 3.8416,8.988308 2.92175,18.974126 2.91835,28.501386 -0.15057,2.91068 -0.26769,6.5518 2.40392,8.43025 2.39903,2.0881 5.72433,3.04125 8.86523,2.54102 1.56512,-11.34644 2.45496,-22.77045 3.36914,-34.183593 3.47754,-3.257651 8.58848,-2.525509 12.93067,-2.25491 l 10.19628,0.559597 c 3.11051,-4.612479 5.36454,-9.720369 7.59376,-14.796875 -3.60346,-2.969014 -8.55139,-1.932544 -12.82155,-2.745132 l -12.34252,-1.280258 c -4.23481,-2.310355 -5.24255,-7.535855 -5.47175,-11.949059 -0.39028,-4.311902 -0.78055,-8.623805 -1.17083,-12.935707 -2.15926,-2.542659 -5.1373,-4.347637 -8.36718,-5.160156 -4.23896,6.97886 -4.29473,15.393969 -5.1543,23.267578 -0.85906,3.941935 -5.1044,5.986224 -8.83984,6.078125 -8.81812,1.111593 -17.72546,0.464352 -26.58058,0.924016 l -12.13231,0.200984 c -3.59069,-5.072421 -2.92141,-11.596812 -3.05724,-17.476259 -0.039,-2.398987 0.2482,-4.834408 -0.28066,-7.199522 -2.35326,-2.653765 -5.32601,-4.731428 -8.58593,-6.117188 -4.26225,4.509726 -4.56847,11.045011 -5.25196,16.873047 -0.32356,3.429037 -0.64713,6.858073 -0.9707,10.28711 -6.39607,3.842118 -14.14234,3.162248 -21.29657,3.324589 l -28.72491,0.15002 c -0.0332,-8.441406 -0.0664,-16.882813 -0.0996,-25.324219 -2.78779,-3.792581 -8.03732,-5.540255 -12.54102,-4.169922 -0.8899,8.424954 -1.746,16.853342 -2.56836,25.285156 -0.6923,2.705885 -3.64927,4.593161 -6.39453,4.058594 l -43.62695,0.150391 c -0.0332,-8.441406 -0.0664,-16.882813 -0.0996,-25.324219 -2.77011,-3.782446 -7.97665,-5.550771 -12.47656,-4.232422 l -2.54493,23.550782 c 0.45299,3.271874 -2.88083,6.366384 -6.10742,5.738281 l -42.46484,0.253906 c -0.67774,-8.174479 -1.35547,-16.348958 -2.0332,-24.523437 -2.35239,-2.721619 -5.19843,-5.01079 -8.355473,-6.734376 z M 459.32617,157.19531 c 0.5276,-0.0756 0.30508,-0.77641 0,0 z m 8.60938,30.70899 c -4.48144,7.70949 -5.92885,17.24983 -3.29304,25.83118 3.98049,20.24051 7.96098,40.48103 11.94147,60.72155 1.37726,4.27416 5.93851,7.06876 10.35352,6.78711 2.4414,-1.43137 2.16768,-4.68936 1.94141,-7.10937 -1.50316,-24.56046 -7.81922,-48.43979 -12.9336,-72.41016 -1.27305,-4.96367 -3.00301,-10.18456 -6.97265,-13.66797 -0.32189,-0.14176 -0.68471,-0.26767 -1.03711,-0.15234 z m -21.04688,8.99218 c -4.40925,5.8047 -4.38311,13.44443 -4.45234,20.39616 -0.50588,40.73255 -0.79791,81.46725 -1.12578,122.2015 0.44805,2.29386 -0.26605,5.20886 -2.6211,6.16406 -13.55279,0.8944 -27.14074,0.26677 -40.70912,0.54682 l -42.23814,0.0919 c -12.46909,8.61472 -19.96067,23.79013 -19.45703,38.91015 l -0.0937,66.08594 -87.77344,0.0371 c -3.92302,2.53546 -6.02361,7.56621 -5.07227,12.13867 33.12292,1.67982 66.2883,2.20317 99.44336,2.8418 7.22107,-5.51769 14.28903,-11.23248 21.25977,-17.0625 23.13723,-2.88596 46.5002,-2.41303 69.76598,-2.80644 19.34168,-0.16804 38.68336,-0.33607 58.02503,-0.50411 7.28753,-1.0807 13.10234,-6.07084 18.35157,-10.87305 2.95218,-3.43311 5.74332,-7.00243 8.38476,-10.67968 -6.2336,-37.45642 -13.10878,-74.80157 -19.80078,-112.17774 -0.18695,-4.26184 -4.36013,-7.04181 -8.23242,-7.66992 -2.24964,-1.05209 -5.50249,0.55897 -4.23919,3.24186 0.0157,22.14394 5.21806,43.79504 9.04491,65.48271 l 8.44623,45.36332 c -3.36096,8.02195 -12.30239,13.09541 -20.90234,12.24023 l -100.81641,0.15039 c 24.1543,-24.16992 48.3086,-48.33984 72.46289,-72.50976 0.2474,-50.30794 0.49479,-100.61589 0.74219,-150.92383 -2.70117,-3.67513 -5.40234,-7.35026 -8.10352,-11.02539 l -0.28832,0.33898 z m -95.69726,243.78907 c 0.01,-24.72591 0.0195,-49.45183 0.0293,-74.17774 9.14466,-4.82493 19.75077,-4.915 29.83203,-5.20312 16.53386,-0.0274 33.06771,-0.0547 49.60157,-0.082 z"
   id="path4229"
   inkscape:connector-curvature="0"
   sodipodi:nodetypes="cccccsccscccccscsssccsssccsssccsssccscscscscssssscsccsccsssccsssccsssccsssccsssccccccccccccccccccccccccccccccccccccccccccccc" />
	</g>
</g>
<g
   id="g4235">
</g>
<g
   id="g4237">
</g>
<g
   id="g4239">
</g>
<g
   id="g4241">
</g>
<g
   id="g4243">
</g>
<g
   id="g4245">
</g>
<g
   id="g4247">
</g>
<g
   id="g4249">
</g>
<g
   id="g4251">
</g>
<g
   id="g4253">
</g>
<g
   id="g4255">
</g>
<g
   id="g4257">
</g>
<g
   id="g4259">
</g>
<g
   id="g4261">
</g>
<g
   id="g4263">
</g>
<g
   style="fill:none"
   id="g404"
   transform="matrix(0.42710669,0,0,0.4273327,85.615147,38.379369)"><path
     id="path384"
     d="M 710.245,228.905 667.47,190.427 462.544,434.022 505.32,472.5 Z"
     inkscape:connector-curvature="0"
     style="fill:#000000" /><path
     id="path386"
     d="m 377.163,535.533 c -2.802,3.331 -2.573,8.032 0.119,11.261 -15.439,15.167 -23.69,36.727 -21.807,58.576 l 0.851,9.866 -9.024,10.728 c -3.139,3.74 -2.659,9.309 1.074,12.457 1.875,1.569 4.196,2.238 6.451,2.044 2.255,-0.195 4.436,-1.252 6.006,-3.118 l 9.024,-10.728 9.867,-0.85 c 21.857,-1.885 41.678,-13.702 53.979,-31.502 1.56,0.904 3.295,1.465 5.119,1.308 2.334,-0.202 4.492,-1.329 6.006,-3.118 l 30.63,-36.421 -67.665,-56.923 z m 1.042,72.617 -4.705,0.405 -0.406,-4.704 c -1.469,-17.047 5.154,-33.905 17.526,-45.444 l 29.358,24.698 c -9.251,14.165 -24.717,23.574 -41.773,25.045 z"
     inkscape:connector-curvature="0"
     style="fill:#000000" /><path
     id="path388"
     d="m 825.144,126.637 c 3.148,-3.742 2.667,-9.318 -1.074,-12.457 L 783.467,80.0224 c -3.732,-3.1397 -9.309,-2.6588 -12.457,1.0739 l -21.751,25.8657 c -0.423,0.338 -0.9,0.565 -1.263,0.996 l -17.115,20.345 c -1.76,-1.366 -3.941,-2.075 -6.17,-1.882 -2.335,0.201 -4.501,1.319 -6.006,3.117 l -39.85,47.359 33.837,28.466 c 3.742,3.148 4.222,8.716 1.074,12.457 L 497.455,474.949 c -1.579,1.867 -3.751,2.923 -6.006,3.118 -2.255,0.194 -4.585,-0.474 -6.451,-2.044 l -33.837,-28.466 -31.992,38.028 67.674,56.922 253.986,-301.921 6.766,5.701 -125.23,148.861 c -3.149,3.733 -2.668,9.31 1.074,12.457 l 20.306,17.083 c 1.79,1.506 4.108,2.246 6.451,2.044 2.334,-0.201 4.492,-1.329 6.006,-3.118 L 815.581,234.152 c 3.147,-3.742 2.667,-9.31 -1.074,-12.457 L 794.21,204.611 c -1.791,-1.514 -4.117,-2.245 -6.451,-2.044 -2.335,0.201 -4.493,1.319 -6.006,3.118 l -22.775,27.072 -6.766,-5.701 34.158,-40.593 c 3.139,-3.742 2.659,-9.309 -1.074,-12.457 l 17.075,-20.297 z m -53.38,35.985 -13.78,-11.592 -13.531,-11.393 11.383,-13.531 13.406,11.279 13.905,11.705 z m 9.474,-38.253 -13.77,-11.593 11.383,-13.5314 27.072,22.7744 -11.392,13.541 z"
     inkscape:connector-curvature="0"
     style="fill:#000000" /></g></svg>