<svg width="778" height="803" viewBox="0 0 778 803" fill="none" xmlns="http://www.w3.org/2000/svg">
<path fill-rule="evenodd" clip-rule="evenodd" d="M774.07 37.1797C777.811 40.3185 778.292 45.8945 775.144 49.6366L752.371 76.7094L735.296 97.0058C739.029 100.154 739.509 105.721 736.37 109.463L702.212 150.056L708.978 155.757L731.753 128.685C733.266 126.886 735.424 125.768 737.759 125.567C740.093 125.366 742.419 126.097 744.21 127.611L764.507 144.695C768.248 147.842 768.728 153.41 765.581 157.152L606.202 346.614C604.688 348.403 602.53 349.531 600.196 349.732C597.853 349.934 595.535 349.193 593.745 347.688L573.439 330.605C569.697 327.458 569.216 321.881 572.365 318.148L697.595 169.287L690.829 163.586L436.843 465.507L369.169 408.585L401.161 370.557L434.998 399.023C436.864 400.592 439.194 401.261 441.449 401.067C443.704 400.872 445.876 399.815 447.455 397.949L452.015 392.528L455.32 395.5L660.245 151.905L656.941 148.933L663.766 140.82C666.914 137.079 666.434 131.511 662.692 128.363L628.855 99.8974L668.705 52.5384C670.21 50.7404 672.376 49.6217 674.711 49.4204C676.939 49.2283 679.121 49.9367 680.881 51.3025L697.996 30.9579C698.234 30.6754 698.521 30.4804 698.81 30.2842C698.962 30.1813 699.114 30.0781 699.259 29.9618L721.01 4.09625C724.158 0.363491 729.735 -0.117325 733.467 3.02228L774.07 37.1797ZM656.941 148.933L617.47 113.427L412.544 357.021L452.015 392.528L656.941 148.933ZM707.984 74.0295L721.764 85.6219L733.147 72.0899L719.242 60.3846L705.836 49.1063L694.453 62.6372L707.984 74.0295ZM717.468 35.7755L731.238 47.3687L744.531 58.56L755.923 45.019L728.851 22.2446L717.468 35.7755ZM190.089 370C156.663 370 129.569 397.094 129.569 430.515C129.569 463.936 156.663 491.03 190.089 491.029C223.509 491.029 250.606 463.936 250.606 430.515C250.606 397.094 223.509 370 190.089 370ZM231.612 496.802C224.314 506.885 219.778 519.081 219.171 532.258C211.105 528.75 202.22 526.806 192.887 526.806C181.382 526.806 170.549 529.762 161.109 534.955C161.033 520.713 156.388 507.557 148.621 496.784C153.717 495.725 159.003 495.16 164.419 495.16H215.765C221.197 495.16 226.49 495.729 231.612 496.802ZM261.574 589.009C259.32 567.358 246.993 548.713 229.415 537.69C229.878 507.292 254.615 482.776 285.128 482.776C297.92 482.776 305.338 533.479 305.958 537.88L306.011 538.494L296.986 549.221C293.847 552.962 294.327 558.53 298.06 561.678C299.935 563.247 302.256 563.917 304.511 563.722C306.767 563.528 308.947 562.47 310.517 560.604L319.542 549.877L321.411 549.716C339.655 570.997 311.083 594.288 285.128 594.288C276.696 594.288 268.736 592.357 261.574 589.009ZM353.749 542.513C346.163 546.041 337.941 548.291 329.408 549.026L321.411 549.716C318.009 545.747 312.979 541.849 306 538.184C306 538.184 305.986 538.08 305.958 537.88L305.16 528.627C303.276 506.779 311.527 485.219 326.967 470.052C324.274 466.823 324.046 462.121 326.848 458.791L357.478 422.371L367.184 430.536C366.621 430.522 366.06 430.515 365.5 430.515L407.576 464.516L425.142 479.294L394.512 515.714C392.998 517.504 390.841 518.631 388.506 518.832C386.682 518.989 384.948 518.429 383.388 517.525C376.122 528.039 366.232 536.465 354.849 541.99H353.765C353.761 542.165 353.755 542.339 353.749 542.513ZM353.749 542.513C353.106 561.09 345.121 577.807 332.559 589.853C367.549 600.254 393.149 632.704 393.149 671.031V688.86C439.493 687.157 466.212 674.03 467.971 673.138L471.693 671.249H472.094V613.37C472.099 574.016 440.07 541.99 400.707 541.99H354.849C354.656 542.084 354.462 542.177 354.268 542.27C354.095 542.351 353.922 542.432 353.749 542.513ZM407.576 464.516L425.5 479C425.5 479 390.5 521 377.049 538.184C407.85 538.184 432.809 513.225 432.809 482.435C432.809 452.196 397.615 431.286 367.184 430.536L407.576 464.516ZM248.638 596.099C248.638 626.885 223.676 651.855 192.886 651.855C162.094 651.855 137.122 626.885 137.122 596.099C137.122 565.309 162.094 540.344 192.886 540.344C223.676 540.344 248.638 565.31 248.638 596.099ZM169.231 655.649H216.537C255.905 655.649 287.918 687.678 287.917 727.045V784.907H287.522L283.796 786.792C281.922 787.749 251.501 802.709 199.04 802.709C172.174 802.709 139.537 798.785 101.97 787.052L97.9879 785.814L97.8373 784.908V727.046C97.8373 687.678 129.868 655.649 169.231 655.649ZM261.84 598.093H308.791C348.144 598.093 380.173 630.117 380.167 669.475V727.347H379.772L376.045 729.242C374.286 730.127 347.572 743.256 301.224 744.963V727.134C301.224 688.807 275.623 656.362 240.633 645.957C253.313 633.797 261.33 616.879 261.84 598.093ZM124.707 585.679C116.106 591.103 105.963 594.289 95.0553 594.289C64.2517 594.289 39.2957 569.331 39.2957 538.532C39.2957 507.734 64.2526 482.777 95.0553 482.777C125.832 482.777 150.799 507.735 150.799 538.532C150.799 539.284 150.75 540.023 150.702 540.764C150.689 540.966 150.675 541.168 150.663 541.371C150.657 541.47 150.651 541.569 150.646 541.668C136.999 552.274 127.442 567.853 124.707 585.679ZM123.928 598.353C124.517 617.03 132.507 633.855 145.128 645.957C110.129 656.357 84.535 688.807 84.5306 727.128V744.597C61.1659 743.244 34.2645 738.914 4.1338 729.491L0.146189 728.248L0 727.347V669.48C0 630.117 32.0259 598.093 71.3938 598.093H118.695C120.445 598.093 122.145 598.22 123.857 598.348L123.861 598.348L123.928 598.353ZM327.889 531.407L323.185 531.813L322.779 527.108C321.309 510.061 327.628 492.539 340 481L369.663 506.363C360.411 520.527 344.945 529.937 327.889 531.407Z" fill="black"/>
</svg>
