<svg width="512" height="512" viewBox="0 0 512 512" fill="none" xmlns="http://www.w3.org/2000/svg">
<g clip-path="url(#clip0)">
<path d="M110.933 221.782C106.223 221.782 102.4 225.605 102.4 230.315V281.515C102.4 286.225 106.223 290.048 110.933 290.048C115.643 290.048 119.466 286.225 119.466 281.515V230.315C119.467 225.605 115.644 221.782 110.933 221.782Z" fill="white"/>
<path d="M111.855 2.30394L31.172 34.5859C8.448 42.9999 0 54.4179 0 76.7149V435.192C0 457.49 8.448 468.907 30.959 477.253L112.017 509.68C116.028 511.199 120.055 511.967 123.998 511.967C141.15 511.967 153.6 497.631 153.6 477.876V34.0489C153.6 9.77994 134.246 -6.12606 111.855 2.30394ZM136.533 477.876C136.533 488.056 131.498 494.9 123.998 494.9C122.129 494.9 120.115 494.499 118.195 493.782L37.103 461.33C21.001 455.365 17.067 450.228 17.067 435.192V76.7149C17.067 61.6789 21.001 56.5509 37.308 50.5089L118.033 18.2189C120.115 17.4339 122.12 17.0329 123.989 17.0329C131.49 17.0329 136.533 23.8679 136.533 34.0489V477.876Z" fill="white"/>
<path d="M178.133 51.115H298.666C312.78 51.115 324.266 62.601 324.266 76.715V204.715C324.266 209.425 328.08 213.248 332.799 213.248C337.518 213.248 341.332 209.425 341.332 204.715V76.715C341.332 53.189 322.192 34.048 298.665 34.048H178.133C173.423 34.048 169.6 37.871 169.6 42.581C169.6 47.291 173.423 51.115 178.133 51.115Z" fill="white"/>
<path d="M332.8 298.582C328.081 298.582 324.267 302.405 324.267 307.115V435.115C324.267 449.229 312.781 460.715 298.667 460.715H179.2C174.49 460.715 170.667 464.538 170.667 469.248C170.667 473.958 174.49 477.781 179.2 477.781H298.667C322.193 477.781 341.334 458.641 341.334 435.114V307.114C341.333 302.405 337.519 298.582 332.8 298.582Z" fill="white"/>
<path d="M511.343 252.655C510.908 251.605 510.285 250.667 509.491 249.873L424.166 164.54C420.829 161.204 415.436 161.204 412.1 164.54C408.763 167.877 408.763 173.27 412.1 176.606L482.867 247.381H196.267C191.557 247.381 187.734 251.204 187.734 255.914C187.734 260.624 191.557 264.447 196.267 264.447H482.868L412.1 335.215C408.763 338.552 408.763 343.945 412.1 347.281C413.764 348.945 415.949 349.781 418.133 349.781C420.318 349.781 422.502 348.945 424.166 347.281L509.491 261.956C510.285 261.162 510.908 260.224 511.343 259.174C512.205 257.093 512.205 254.738 511.343 252.655Z" fill="white"/>
</g>
<defs>
<clipPath id="clip0">
<rect width="511.989" height="511.989" fill="white"/>
</clipPath>
</defs>
</svg>
