<svg width="1976" height="1419" viewBox="0 0 1976 1419" fill="none" xmlns="http://www.w3.org/2000/svg">
<path d="M1212.09 636.037L1433.31 1090.48C1442.3 1108.96 1432.85 1124.08 1412.29 1124.08H24.4209C3.86557 1124.08 -5.59278 1108.96 3.40544 1090.48L224.626 636.037C228.145 628.809 237.603 622.893 245.642 622.893H435.327C441.173 622.893 449.068 626.553 452.894 630.973C465.764 645.845 478.872 660.374 491.944 674.755C504.358 688.407 516.837 702.236 529.218 716.39H304.108C296.067 716.39 286.609 722.303 283.092 729.534L136.543 1030.59H1300.16L1153.62 729.534C1150.11 722.303 1140.65 716.39 1132.61 716.39H906.987C919.365 702.236 931.85 688.407 944.264 674.755C957.375 660.332 970.556 645.831 983.456 630.955C987.278 626.546 995.156 622.893 1000.99 622.893H1191.08C1199.11 622.893 1208.57 628.804 1212.09 636.037ZM1043.59 325.473C1043.59 573.789 836.869 620.36 739.647 858.993C731.748 878.383 704.448 878.285 696.546 858.899C608.843 643.742 432.121 584.74 398.309 393.066C365.018 204.371 495.665 19.5329 686.423 1.50124C880.426 -16.838 1043.59 135.263 1043.59 325.473ZM889.997 325.473C889.997 230.546 813.046 153.593 718.118 153.593C623.189 153.593 546.238 230.546 546.238 325.473C546.238 420.401 623.189 497.352 718.118 497.352C813.046 497.352 889.997 420.401 889.997 325.473Z" fill="black"/>
<path fill-rule="evenodd" clip-rule="evenodd" d="M342.588 1105.91L282.316 1229.73C273.317 1248.21 282.776 1263.33 303.331 1263.33H1691.2C1711.76 1263.33 1721.21 1248.21 1712.22 1229.73L1491 775.282C1487.48 768.049 1478.02 762.138 1469.99 762.138H1279.9C1274.07 762.138 1266.19 765.791 1262.37 770.199C1261.03 771.745 1259.68 773.286 1258.34 774.823V855.634H1411.52C1419.56 855.634 1429.02 861.548 1432.53 868.778L1579.07 1169.84H415.453L446.571 1105.91H342.588Z" fill="black"/>
<path fill-rule="evenodd" clip-rule="evenodd" d="M602.039 1261.58L541.767 1385.4C532.769 1403.88 542.227 1419 562.782 1419H1950.65C1971.21 1419 1980.66 1403.88 1971.67 1385.4L1750.45 930.953C1746.93 923.72 1737.47 917.809 1729.44 917.809H1539.35C1533.52 917.809 1525.64 921.461 1521.82 925.87C1520.48 927.415 1519.13 928.956 1517.79 930.493V1011.31H1670.97C1679.01 1011.31 1688.47 1017.22 1691.99 1024.45L1838.52 1325.51H674.904L706.022 1261.58H602.039Z" fill="black"/>
</svg>
