<?xml version="1.0" encoding="UTF-8" standalone="no"?>
<!-- Generator: Adobe Illustrator 19.0.0, SVG Export Plug-In . SVG Version: 6.00 Build 0)  -->

<svg
   xmlns:dc="http://purl.org/dc/elements/1.1/"
   xmlns:cc="http://creativecommons.org/ns#"
   xmlns:rdf="http://www.w3.org/1999/02/22-rdf-syntax-ns#"
   xmlns:svg="http://www.w3.org/2000/svg"
   xmlns="http://www.w3.org/2000/svg"
   xmlns:sodipodi="http://sodipodi.sourceforge.net/DTD/sodipodi-0.dtd"
   xmlns:inkscape="http://www.inkscape.org/namespaces/inkscape"
   version="1.1"
   id="Capa_1"
   x="0px"
   y="0px"
   viewBox="0 0 60 60"
   style="enable-background:new 0 0 60 60;"
   xml:space="preserve"
   sodipodi:docname="white-garbage.svg"
   inkscape:version="0.92.4 (5da689c313, 2019-01-14)"><metadata
   id="metadata139"><rdf:RDF><cc:Work
       rdf:about=""><dc:format>image/svg+xml</dc:format><dc:type
         rdf:resource="http://purl.org/dc/dcmitype/StillImage" /><dc:title></dc:title></cc:Work></rdf:RDF></metadata><defs
   id="defs137" /><sodipodi:namedview
   pagecolor="#ffffff"
   bordercolor="#666666"
   borderopacity="1"
   objecttolerance="10"
   gridtolerance="10"
   guidetolerance="10"
   inkscape:pageopacity="0"
   inkscape:pageshadow="2"
   inkscape:window-width="1920"
   inkscape:window-height="1017"
   id="namedview135"
   showgrid="false"
   inkscape:zoom="3.9333333"
   inkscape:cx="30"
   inkscape:cy="30"
   inkscape:window-x="-8"
   inkscape:window-y="-8"
   inkscape:window-maximized="1"
   inkscape:current-layer="Capa_1" />
<g
   id="g102"
   style="fill:#ffffff">
	<path
   d="M49.416,10.199c-0.572-0.759-1.405-1.25-2.346-1.382l-9.352-1.314l0.417-2.971c0.111-0.791-0.093-1.58-0.577-2.222   s-1.185-1.056-1.977-1.167L27.661,0.03c-0.791-0.111-1.58,0.094-2.222,0.577c-0.641,0.483-1.056,1.185-1.167,1.976l-0.418,2.971   L14.504,4.24c-1.942-0.272-3.745,1.085-4.017,3.026l-0.619,4.401l8.353,1.174l-5.855,5.855c-0.089,0.089-0.144,0.198-0.204,0.305   h-1.03v37.271c0,2.057,1.673,3.729,3.729,3.729h28.541c2.057,0,3.729-1.673,3.729-3.729V19h-5v-2.799l7.347,1.032l0.618-4.399   C50.229,11.893,49.988,10.957,49.416,10.199z M26.253,2.861c0.037-0.262,0.175-0.495,0.39-0.657   c0.214-0.161,0.478-0.231,0.74-0.193l7.922,1.113c0.262,0.037,0.496,0.176,0.658,0.391c0.162,0.214,0.23,0.477,0.193,0.738   l-0.417,2.971l-9.903-1.392L26.253,2.861z M18.475,15.414L22.061,19h-7.171L18.475,15.414z M35.132,16v3h-1v-3h-10v2.243   l-5.319-5.319L40.702,16H35.132z M40.132,18v1h-3v-1H40.132z M32.132,18v1h-6v-1H32.132z M45.132,21v35.271   c0,0.954-0.776,1.729-1.729,1.729H14.862c-0.954,0-1.729-0.775-1.729-1.729V21h11h0.07h9.93h1h7H45.132z M48.117,12.556   l-0.34,2.418l-35.65-5.01l0.34-2.42c0.119-0.849,0.904-1.439,1.758-1.324l9.351,1.314v0l8.601,1.209l14.615,2.054   c0.412,0.058,0.776,0.272,1.026,0.604C48.069,11.734,48.175,12.144,48.117,12.556z"
   id="path2"
   style="fill:#ffffff" />
	<circle
   cx="17.132"
   cy="28"
   r="1"
   id="circle4"
   style="fill:#ffffff" />
	<circle
   cx="17.132"
   cy="34"
   r="1"
   id="circle6"
   style="fill:#ffffff" />
	<circle
   cx="20.132"
   cy="25"
   r="1"
   id="circle8"
   style="fill:#ffffff" />
	<circle
   cx="26.132"
   cy="25"
   r="1"
   id="circle10"
   style="fill:#ffffff" />
	<circle
   cx="20.132"
   cy="31"
   r="1"
   id="circle12"
   style="fill:#ffffff" />
	<circle
   cx="26.132"
   cy="31"
   r="1"
   id="circle14"
   style="fill:#ffffff" />
	<circle
   cx="23.132"
   cy="28"
   r="1"
   id="circle16"
   style="fill:#ffffff" />
	<circle
   cx="29.132"
   cy="28"
   r="1"
   id="circle18"
   style="fill:#ffffff" />
	<circle
   cx="23.132"
   cy="34"
   r="1"
   id="circle20"
   style="fill:#ffffff" />
	<circle
   cx="29.132"
   cy="34"
   r="1"
   id="circle22"
   style="fill:#ffffff" />
	<circle
   cx="32.132"
   cy="25"
   r="1"
   id="circle24"
   style="fill:#ffffff" />
	<circle
   cx="38.132"
   cy="25"
   r="1"
   id="circle26"
   style="fill:#ffffff" />
	<circle
   cx="32.132"
   cy="31"
   r="1"
   id="circle28"
   style="fill:#ffffff" />
	<circle
   cx="38.132"
   cy="31"
   r="1"
   id="circle30"
   style="fill:#ffffff" />
	<circle
   cx="35.132"
   cy="28"
   r="1"
   id="circle32"
   style="fill:#ffffff" />
	<circle
   cx="41.132"
   cy="28"
   r="1"
   id="circle34"
   style="fill:#ffffff" />
	<circle
   cx="35.132"
   cy="34"
   r="1"
   id="circle36"
   style="fill:#ffffff" />
	<circle
   cx="41.132"
   cy="34"
   r="1"
   id="circle38"
   style="fill:#ffffff" />
	<circle
   cx="17.132"
   cy="40"
   r="1"
   id="circle40"
   style="fill:#ffffff" />
	<circle
   cx="17.132"
   cy="46"
   r="1"
   id="circle42"
   style="fill:#ffffff" />
	<circle
   cx="20.132"
   cy="37"
   r="1"
   id="circle44"
   style="fill:#ffffff" />
	<circle
   cx="26.132"
   cy="37"
   r="1"
   id="circle46"
   style="fill:#ffffff" />
	<circle
   cx="20.132"
   cy="43"
   r="1"
   id="circle48"
   style="fill:#ffffff" />
	<circle
   cx="26.132"
   cy="43"
   r="1"
   id="circle50"
   style="fill:#ffffff" />
	<circle
   cx="23.132"
   cy="40"
   r="1"
   id="circle52"
   style="fill:#ffffff" />
	<circle
   cx="29.132"
   cy="40"
   r="1"
   id="circle54"
   style="fill:#ffffff" />
	<circle
   cx="23.132"
   cy="46"
   r="1"
   id="circle56"
   style="fill:#ffffff" />
	<circle
   cx="29.132"
   cy="46"
   r="1"
   id="circle58"
   style="fill:#ffffff" />
	<circle
   cx="32.132"
   cy="37"
   r="1"
   id="circle60"
   style="fill:#ffffff" />
	<circle
   cx="38.132"
   cy="37"
   r="1"
   id="circle62"
   style="fill:#ffffff" />
	<circle
   cx="32.132"
   cy="43"
   r="1"
   id="circle64"
   style="fill:#ffffff" />
	<circle
   cx="38.132"
   cy="43"
   r="1"
   id="circle66"
   style="fill:#ffffff" />
	<circle
   cx="35.132"
   cy="40"
   r="1"
   id="circle68"
   style="fill:#ffffff" />
	<circle
   cx="41.132"
   cy="40"
   r="1"
   id="circle70"
   style="fill:#ffffff" />
	<circle
   cx="35.132"
   cy="46"
   r="1"
   id="circle72"
   style="fill:#ffffff" />
	<circle
   cx="41.132"
   cy="46"
   r="1"
   id="circle74"
   style="fill:#ffffff" />
	<circle
   cx="17.132"
   cy="52"
   r="1"
   id="circle76"
   style="fill:#ffffff" />
	<circle
   cx="20.132"
   cy="49"
   r="1"
   id="circle78"
   style="fill:#ffffff" />
	<circle
   cx="26.132"
   cy="49"
   r="1"
   id="circle80"
   style="fill:#ffffff" />
	<circle
   cx="20.132"
   cy="55"
   r="1"
   id="circle82"
   style="fill:#ffffff" />
	<circle
   cx="26.132"
   cy="55"
   r="1"
   id="circle84"
   style="fill:#ffffff" />
	<circle
   cx="23.132"
   cy="52"
   r="1"
   id="circle86"
   style="fill:#ffffff" />
	<circle
   cx="29.132"
   cy="52"
   r="1"
   id="circle88"
   style="fill:#ffffff" />
	<circle
   cx="32.132"
   cy="49"
   r="1"
   id="circle90"
   style="fill:#ffffff" />
	<circle
   cx="38.132"
   cy="49"
   r="1"
   id="circle92"
   style="fill:#ffffff" />
	<circle
   cx="32.132"
   cy="55"
   r="1"
   id="circle94"
   style="fill:#ffffff" />
	<circle
   cx="38.132"
   cy="55"
   r="1"
   id="circle96"
   style="fill:#ffffff" />
	<circle
   cx="35.132"
   cy="52"
   r="1"
   id="circle98"
   style="fill:#ffffff" />
	<circle
   cx="41.132"
   cy="52"
   r="1"
   id="circle100"
   style="fill:#ffffff" />
</g>
<g
   id="g104">
</g>
<g
   id="g106">
</g>
<g
   id="g108">
</g>
<g
   id="g110">
</g>
<g
   id="g112">
</g>
<g
   id="g114">
</g>
<g
   id="g116">
</g>
<g
   id="g118">
</g>
<g
   id="g120">
</g>
<g
   id="g122">
</g>
<g
   id="g124">
</g>
<g
   id="g126">
</g>
<g
   id="g128">
</g>
<g
   id="g130">
</g>
<g
   id="g132">
</g>
</svg>